HIERARCHY
ROOT mixamorig:Hips
{
	OFFSET -0.000008 104.274872 1.554316
	CHANNELS 6 Xposition Yposition Zposition Xrotation Yrotation Zrotation
	JOINT mixamorig:Spine
	{
		OFFSET -0.000005 10.181595 0.131519
		CHANNELS 6 Xposition Yposition Zposition Xrotation Yrotation Zrotation
		JOINT mixamorig:Spine1
		{
			OFFSET -0.000000 9.893959 -1.470707
			CHANNELS 6 Xposition Yposition Zposition Xrotation Yrotation Zrotation
			JOINT mixamorig:Spine2
			{
				OFFSET -0.000000 9.220757 -1.370641
				CHANNELS 6 Xposition Yposition Zposition Xrotation Yrotation Zrotation
				JOINT mixamorig:Neck
				{
					OFFSET 0.000001 16.740417 -2.049036
					CHANNELS 6 Xposition Yposition Zposition Xrotation Yrotation Zrotation
					JOINT mixamorig:Head
					{
						OFFSET 0.000000 9.617874 1.685006
						CHANNELS 6 Xposition Yposition Zposition Xrotation Yrotation Zrotation
						JOINT mixamorig:HeadTop_End
						{
							OFFSET 0.000002 22.037354 7.501101
							CHANNELS 6 Xposition Yposition Zposition Xrotation Yrotation Zrotation
							End Site
							{
								OFFSET 0.000168 2310.654297 -282.823242
							}
						}
					}
				}
				JOINT mixamorig:RightShoulder
				{
					OFFSET -4.569970 11.014908 -2.160885
					CHANNELS 6 Xposition Yposition Zposition Xrotation Yrotation Zrotation
					JOINT mixamorig:RightArm
					{
						OFFSET -10.592851 -0.524811 -2.232101
						CHANNELS 6 Xposition Yposition Zposition Xrotation Yrotation Zrotation
						JOINT mixamorig:RightForeArm
						{
							OFFSET -27.841511 0.000031 -0.000004
							CHANNELS 6 Xposition Yposition Zposition Xrotation Yrotation Zrotation
							JOINT mixamorig:RightHand
							{
								OFFSET -28.328831 -0.000015 0.000015
								CHANNELS 6 Xposition Yposition Zposition Xrotation Yrotation Zrotation
								JOINT mixamorig:RightHandThumb1
								{
									OFFSET -2.464806 -1.573990 2.681852
									CHANNELS 6 Xposition Yposition Zposition Xrotation Yrotation Zrotation
									JOINT mixamorig:RightHandThumb2
									{
										OFFSET -3.215179 -1.872803 1.924282
										CHANNELS 6 Xposition Yposition Zposition Xrotation Yrotation Zrotation
										JOINT mixamorig:RightHandThumb3
										{
											OFFSET -2.654831 -1.527969 1.512609
											CHANNELS 6 Xposition Yposition Zposition Xrotation Yrotation Zrotation
											JOINT mixamorig:RightHandThumb4
											{
												OFFSET -2.018814 -1.152008 1.108052
												CHANNELS 6 Xposition Yposition Zposition Xrotation Yrotation Zrotation
												End Site
												{
													OFFSET -188.809540 -114.533607 132.431396
												}
											}
										}
									}
								}
								JOINT mixamorig:RightHandIndex1
								{
									OFFSET -9.108284 -0.517868 2.259835
									CHANNELS 6 Xposition Yposition Zposition Xrotation Yrotation Zrotation
									JOINT mixamorig:RightHandIndex2
									{
										OFFSET -3.699989 0.000000 0.001215
										CHANNELS 6 Xposition Yposition Zposition Xrotation Yrotation Zrotation
										JOINT mixamorig:RightHandIndex3
										{
											OFFSET -2.850006 0.000031 -0.000522
											CHANNELS 6 Xposition Yposition Zposition Xrotation Yrotation Zrotation
											JOINT mixamorig:RightHandIndex4
											{
												OFFSET -2.772186 -0.000015 -0.000020
												CHANNELS 6 Xposition Yposition Zposition Xrotation Yrotation Zrotation
												End Site
												{
													OFFSET -277.218445 0.000000 -0.050231
												}
											}
										}
									}
								}
								JOINT mixamorig:RightHandMiddle1
								{
									OFFSET -9.532516 -0.000031 -0.000023
									CHANNELS 6 Xposition Yposition Zposition Xrotation Yrotation Zrotation
									JOINT mixamorig:RightHandMiddle2
									{
										OFFSET -3.700005 -0.000015 0.003713
										CHANNELS 6 Xposition Yposition Zposition Xrotation Yrotation Zrotation
										JOINT mixamorig:RightHandMiddle3
										{
											OFFSET -2.949974 0.000015 -0.002054
											CHANNELS 6 Xposition Yposition Zposition Xrotation Yrotation Zrotation
											JOINT mixamorig:RightHandMiddle4
											{
												OFFSET -2.946640 0.000000 -0.000156
												CHANNELS 6 Xposition Yposition Zposition Xrotation Yrotation Zrotation
												End Site
												{
													OFFSET -294.664337 0.000000 -0.113670
												}
											}
										}
									}
								}
								JOINT mixamorig:RightHandRing1
								{
									OFFSET -9.103600 -0.043076 -1.865134
									CHANNELS 6 Xposition Yposition Zposition Xrotation Yrotation Zrotation
									JOINT mixamorig:RightHandRing2
									{
										OFFSET -3.379288 0.000000 -0.001055
										CHANNELS 6 Xposition Yposition Zposition Xrotation Yrotation Zrotation
										JOINT mixamorig:RightHandRing3
										{
											OFFSET -2.889687 -0.000015 0.000379
											CHANNELS 6 Xposition Yposition Zposition Xrotation Yrotation Zrotation
											JOINT mixamorig:RightHandRing4
											{
												OFFSET -2.638809 -0.000015 0.000941
												CHANNELS 6 Xposition Yposition Zposition Xrotation Yrotation Zrotation
												End Site
												{
													OFFSET -263.880371 0.000000 0.516020
												}
											}
										}
									}
								}
								JOINT mixamorig:RightHandPinky1
								{
									OFFSET -8.076683 -0.486710 -3.806280
									CHANNELS 6 Xposition Yposition Zposition Xrotation Yrotation Zrotation
									JOINT mixamorig:RightHandPinky2
									{
										OFFSET -3.600014 -0.000015 -0.003747
										CHANNELS 6 Xposition Yposition Zposition Xrotation Yrotation Zrotation
										JOINT mixamorig:RightHandPinky3
										{
											OFFSET -2.099983 0.000000 -0.005739
											CHANNELS 6 Xposition Yposition Zposition Xrotation Yrotation Zrotation
											JOINT mixamorig:RightHandPinky4
											{
												OFFSET -2.115768 -0.000031 -0.003680
												CHANNELS 6 Xposition Yposition Zposition Xrotation Yrotation Zrotation
												End Site
												{
													OFFSET -211.577087 0.000000 -0.350686
												}
											}
										}
									}
								}
							}
						}
					}
				}
				JOINT mixamorig:LeftShoulder
				{
					OFFSET 4.570447 11.014725 -2.160855
					CHANNELS 6 Xposition Yposition Zposition Xrotation Yrotation Zrotation
					JOINT mixamorig:LeftArm
					{
						OFFSET 10.592371 -0.524597 -2.232119
						CHANNELS 6 Xposition Yposition Zposition Xrotation Yrotation Zrotation
						JOINT mixamorig:LeftForeArm
						{
							OFFSET 27.841532 -0.000031 0.000026
							CHANNELS 6 Xposition Yposition Zposition Xrotation Yrotation Zrotation
							JOINT mixamorig:LeftHand
							{
								OFFSET 28.328846 -0.000061 0.000022
								CHANNELS 6 Xposition Yposition Zposition Xrotation Yrotation Zrotation
								JOINT mixamorig:LeftHandThumb1
								{
									OFFSET 2.466141 -1.576172 2.681732
									CHANNELS 6 Xposition Yposition Zposition Xrotation Yrotation Zrotation
									JOINT mixamorig:LeftHandThumb2
									{
										OFFSET 3.217812 -1.872070 1.916482
										CHANNELS 6 Xposition Yposition Zposition Xrotation Yrotation Zrotation
										JOINT mixamorig:LeftHandThumb3
										{
											OFFSET 2.656029 -1.528778 1.514513
											CHANNELS 6 Xposition Yposition Zposition Xrotation Yrotation Zrotation
											JOINT mixamorig:LeftHandThumb4
											{
												OFFSET 2.020889 -1.154053 1.115139
												CHANNELS 6 Xposition Yposition Zposition Xrotation Yrotation Zrotation
												End Site
												{
													OFFSET 190.885437 -115.081749 130.048782
												}
											}
										}
									}
								}
								JOINT mixamorig:LeftHandIndex1
								{
									OFFSET 9.109314 -0.518021 2.259871
									CHANNELS 6 Xposition Yposition Zposition Xrotation Yrotation Zrotation
									JOINT mixamorig:LeftHandIndex2
									{
										OFFSET 3.699989 0.000000 -0.000322
										CHANNELS 6 Xposition Yposition Zposition Xrotation Yrotation Zrotation
										JOINT mixamorig:LeftHandIndex3
										{
											OFFSET 2.850006 0.000000 0.000352
											CHANNELS 6 Xposition Yposition Zposition Xrotation Yrotation Zrotation
											JOINT mixamorig:LeftHandIndex4
											{
												OFFSET 2.774864 -0.000031 -0.000027
												CHANNELS 6 Xposition Yposition Zposition Xrotation Yrotation Zrotation
												End Site
												{
													OFFSET 277.486267 0.000000 -0.009857
												}
											}
										}
									}
								}
								JOINT mixamorig:LeftHandMiddle1
								{
									OFFSET 9.533394 0.000061 0.000044
									CHANNELS 6 Xposition Yposition Zposition Xrotation Yrotation Zrotation
									JOINT mixamorig:LeftHandMiddle2
									{
										OFFSET 3.699989 -0.000015 -0.000231
										CHANNELS 6 Xposition Yposition Zposition Xrotation Yrotation Zrotation
										JOINT mixamorig:LeftHandMiddle3
										{
											OFFSET 2.949997 -0.000015 -0.000059
											CHANNELS 6 Xposition Yposition Zposition Xrotation Yrotation Zrotation
											JOINT mixamorig:LeftHandMiddle4
											{
												OFFSET 2.952896 0.000031 0.000063
												CHANNELS 6 Xposition Yposition Zposition Xrotation Yrotation Zrotation
												End Site
												{
													OFFSET 295.289337 0.000000 0.022810
												}
											}
										}
									}
								}
								JOINT mixamorig:LeftHandRing1
								{
									OFFSET 9.104523 -0.042999 -1.865074
									CHANNELS 6 Xposition Yposition Zposition Xrotation Yrotation Zrotation
									JOINT mixamorig:LeftHandRing2
									{
										OFFSET 3.150009 -0.000031 0.000043
										CHANNELS 6 Xposition Yposition Zposition Xrotation Yrotation Zrotation
										JOINT mixamorig:LeftHandRing3
										{
											OFFSET 2.949982 -0.000015 0.000040
											CHANNELS 6 Xposition Yposition Zposition Xrotation Yrotation Zrotation
											JOINT mixamorig:LeftHandRing4
											{
												OFFSET 2.644348 0.000000 0.000057
												CHANNELS 6 Xposition Yposition Zposition Xrotation Yrotation Zrotation
												End Site
												{
													OFFSET 264.434631 0.000000 0.012105
												}
											}
										}
									}
								}
								JOINT mixamorig:LeftHandPinky1
								{
									OFFSET 8.077789 -0.486847 -3.806259
									CHANNELS 6 Xposition Yposition Zposition Xrotation Yrotation Zrotation
									JOINT mixamorig:LeftHandPinky2
									{
										OFFSET 3.599953 0.000031 0.014727
										CHANNELS 6 Xposition Yposition Zposition Xrotation Yrotation Zrotation
										JOINT mixamorig:LeftHandPinky3
										{
											OFFSET 2.100021 0.000015 0.007705
											CHANNELS 6 Xposition Yposition Zposition Xrotation Yrotation Zrotation
											JOINT mixamorig:LeftHandPinky4
											{
												OFFSET 2.125504 0.000031 0.007517
												CHANNELS 6 Xposition Yposition Zposition Xrotation Yrotation Zrotation
												End Site
												{
													OFFSET 212.550781 0.000000 0.625752
												}
											}
										}
									}
								}
							}
						}
					}
				}
			}
		}
	}
	JOINT mixamorig:RightUpLeg
	{
		OFFSET -8.207787 -6.751648 -1.599560
		CHANNELS 6 Xposition Yposition Zposition Xrotation Yrotation Zrotation
		JOINT mixamorig:RightLeg
		{
			OFFSET -0.000002 -44.370117 0.345942
			CHANNELS 6 Xposition Yposition Zposition Xrotation Yrotation Zrotation
			JOINT mixamorig:RightFoot
			{
				OFFSET 0.000003 -44.423679 -3.043532
				CHANNELS 6 Xposition Yposition Zposition Xrotation Yrotation Zrotation
				JOINT mixamorig:RightToeBase
				{
					OFFSET -0.000002 -8.728671 10.710558
					CHANNELS 6 Xposition Yposition Zposition Xrotation Yrotation Zrotation
					JOINT mixamorig:RightToe_End
					{
						OFFSET -0.000001 -0.000679 9.278119
						CHANNELS 6 Xposition Yposition Zposition Xrotation Yrotation Zrotation
						End Site
						{
							OFFSET 0.000000 -0.067690 927.812134
						}
					}
				}
			}
		}
	}
	JOINT mixamorig:LeftUpLeg
	{
		OFFSET 8.207793 -6.751686 -1.599556
		CHANNELS 6 Xposition Yposition Zposition Xrotation Yrotation Zrotation
		JOINT mixamorig:LeftLeg
		{
			OFFSET -0.000004 -44.370014 0.346954
			CHANNELS 6 Xposition Yposition Zposition Xrotation Yrotation Zrotation
			JOINT mixamorig:LeftFoot
			{
				OFFSET -0.000001 -44.423672 -3.044401
				CHANNELS 6 Xposition Yposition Zposition Xrotation Yrotation Zrotation
				JOINT mixamorig:LeftToeBase
				{
					OFFSET -0.000002 -8.728669 10.710558
					CHANNELS 6 Xposition Yposition Zposition Xrotation Yrotation Zrotation
					JOINT mixamorig:LeftToe_End
					{
						OFFSET -0.000003 -0.000679 9.278133
						CHANNELS 6 Xposition Yposition Zposition Xrotation Yrotation Zrotation
						End Site
						{
							OFFSET 0.000000 -0.068021 927.813477
						}
					}
				}
			}
		}
	}
}
MOTION
Frames: 3
Frame Time: 0.033333
0.000006 104.270477 1.554256 0.000010 0.000003 -0.000113 -0.000005 10.181587 0.131522 0.000001 -0.000003 0.000084 -0.000000 9.893967 -1.470711 0.000001 0.000000 -0.000000 -0.000000 9.220802 -1.370642 0.000000 -0.000000 -0.000000 0.000001 16.740433 -2.049030 0.000000 -0.000000 -0.000000 0.000000 9.617859 1.685014 0.000000 0.000000 0.000000 0.000002 22.037384 7.501101 0.000000 -0.000000 0.000000 -4.569968 11.014880 -2.160881 0.000008 0.000001 -0.000038 -10.592851 -0.524810 -2.231826 74.407726 43.992630 -34.097254 -27.841511 0.000009 0.000565 -47.858043 108.355637 63.163506 -28.328836 0.000007 0.000027 -0.000324 -0.000044 0.000007 -2.464403 -1.573777 2.682343 -46.724528 -162.774200 -7.027376 -3.215259 -1.872546 1.924630 152.151766 33.268783 17.362530 -2.654949 -1.527891 1.513074 148.347734 27.014020 -33.743067 -2.018827 -1.151995 1.108075 -0.000004 -0.000006 0.000002 -9.108372 -0.517547 2.260151 104.853103 16.891336 -21.907313 -3.700061 0.000304 0.001548 101.406330 14.641079 -17.813210 -2.850098 0.000366 -0.000248 98.831881 12.058935 -14.057471 -2.772171 -0.000015 -0.000021 -0.000001 -0.000001 0.000000 -9.532585 0.000260 0.000243 93.127389 16.666671 -17.738855 -3.700079 0.000329 0.003973 95.049917 11.350386 -12.287423 -2.950049 0.000339 -0.001784 96.488532 11.538922 -12.906634 -2.946639 0.000015 -0.000152 -0.000001 -0.000001 -0.000000 -9.103691 -0.042758 -1.864868 91.118992 18.545155 -18.858318 -3.379305 0.000330 -0.000807 93.855139 7.080922 -7.590687 -2.889745 0.000375 0.000661 99.591159 5.677636 -6.768279 -2.638814 -0.000028 0.000938 -0.000000 -0.000000 -0.000001 -8.076754 -0.486406 -3.806028 84.494597 20.570230 -18.576141 -3.600021 0.000279 -0.003536 86.780989 7.572838 -6.828014 -2.100009 0.000331 -0.005494 89.934303 3.840019 -3.622238 -2.115789 -0.000051 -0.003682 0.000001 0.000000 -0.000007 4.570446 11.014691 -2.160851 -0.000018 0.000010 -0.000021 10.592520 -0.524581 -2.232359 50.843641 -80.853314 44.085668 27.841726 -0.000082 -0.000089 246.607969 -73.291925 262.898025 28.328840 -0.000044 0.000026 0.000020 -0.000089 -0.000000 2.466141 -1.576221 2.681801 152.292550 170.509416 -173.858558 3.217826 -1.872002 1.916535 300.810082 31.732335 379.038315 2.656017 -1.528802 1.514584 -105.235060 52.454132 54.622054 2.020895 -1.154078 1.115154 0.000000 0.000002 0.000004 9.109307 -0.517826 2.260113 -100.433267 -4.594501 -5.505460 3.700005 0.000286 -0.000131 -133.321427 0.266065 0.583746 2.849712 0.000281 0.000362 -191.380890 12.107454 266.432019 2.774879 -0.000030 -0.000029 0.000000 -0.000000 0.000000 9.533434 0.000330 0.000226 -132.819654 3.169360 7.267475 3.699943 0.000144 -0.000427 69.957898 19.387711 -13.632000 2.949977 0.000104 -0.000214 53.678149 10.595438 -5.371658 2.952882 -0.000017 0.000053 0.000001 -0.000001 -0.000000 9.104664 -0.042883 -1.864925 -139.706383 24.876196 62.022626 3.149925 0.000156 -0.000155 59.445623 27.123726 -15.682263 2.949953 0.000098 -0.000139 53.141945 11.378966 -5.704474 2.644325 0.000015 0.000054 0.000003 -0.000000 -0.000000 8.077756 -0.486873 -3.806221 -99.070856 70.742899 78.907304 3.599868 0.000123 0.014543 56.725025 27.275705 -14.842819 2.099948 0.000119 0.007514 50.830702 23.373792 -11.145948 2.125519 -0.000015 0.007530 0.000000 -0.000001 -0.000003 -8.207786 -6.751667 -1.599560 -0.077001 -0.000003 0.000080 -0.000002 -44.370110 0.345938 0.153719 -0.000000 -0.000000 0.000000 -44.423679 -3.043532 -0.076700 0.000000 -0.000002 -0.000006 -8.728667 10.710559 -0.000009 -0.000000 -0.000000 -0.000001 -0.000679 9.278123 0.000000 -0.000000 -0.000000 8.207792 -6.751710 -1.599556 -0.074518 -0.000003 0.000081 -0.000002 -44.370014 0.346960 0.148822 0.000002 0.000000 -0.000001 -44.423664 -3.044403 -0.074314 0.000000 -0.000002 -0.000004 -8.728671 10.710558 0.000007 -0.000000 -0.000000 0.000000 -0.000680 9.278137 -0.000000 0.000000 -0.000001 
0.000006 104.270477 1.554256 0.000010 0.000003 -0.000113 -0.000005 10.181587 0.131522 0.000001 -0.000003 0.000084 -0.000000 9.893967 -1.470711 0.000001 0.000000 -0.000000 -0.000000 9.220802 -1.370642 0.000000 -0.000000 -0.000000 0.000001 16.740433 -2.049030 0.000000 -0.000000 -0.000000 0.000000 9.617859 1.685014 0.000000 0.000000 0.000000 0.000002 22.037384 7.501101 0.000000 -0.000000 0.000000 -4.569968 11.014880 -2.160881 0.000008 0.000001 -0.000038 -10.592847 -0.524802 -2.231820 74.361984 46.163992 -35.827276 -27.841501 0.000025 0.000556 -47.764732 107.413461 62.172152 -28.328846 0.000005 0.000028 -0.000324 -0.000046 0.000011 -2.464401 -1.573807 2.682345 -43.651288 -159.872790 0.019370 -3.215260 -1.872546 1.924634 152.180972 33.323219 17.683541 -2.654952 -1.527893 1.513080 148.357473 27.041602 -33.465345 -2.018838 -1.151996 1.108065 -0.000004 -0.000002 0.000004 -9.108374 -0.517559 2.260149 104.137429 17.135128 -21.941669 -3.700097 0.000310 0.001549 101.226846 14.765448 -17.907564 -2.850077 0.000361 -0.000242 99.652651 12.217332 -14.447650 -2.772148 -0.000016 -0.000015 0.000001 -0.000004 0.000000 -9.532595 0.000258 0.000246 92.619086 17.388360 -18.339275 -3.700070 0.000327 0.003972 94.730271 11.845806 -12.755885 -2.950058 0.000334 -0.001813 97.563706 11.706970 -13.342080 -2.946616 0.000002 -0.000157 0.000001 0.000000 -0.000000 -9.103700 -0.042776 -1.864867 91.424630 19.917595 -20.361847 -3.379327 0.000319 -0.000815 93.628028 7.629244 -8.144684 -2.889724 0.000376 0.000645 100.151706 5.782601 -6.961048 -2.638817 -0.000012 0.000943 0.000002 0.000001 0.000000 -8.076764 -0.486403 -3.806025 85.224614 22.009468 -20.140425 -3.600040 0.000280 -0.003526 86.050008 8.008078 -7.145980 -2.099996 0.000321 -0.005496 89.197838 3.872657 -3.608078 -2.115783 -0.000050 -0.003676 0.000001 0.000000 -0.000006 4.570446 11.014691 -2.160851 -0.000018 0.000010 -0.000021 10.592518 -0.524589 -2.232357 51.818941 -81.605154 45.501658 27.841721 -0.000080 -0.000086 246.969095 -73.843634 262.717161 28.328829 -0.000042 0.000024 0.000021 -0.000089 0.000001 2.466140 -1.576203 2.681820 149.705862 170.725291 -172.946824 3.217818 -1.872011 1.916515 298.673080 30.387051 379.977767 2.656017 -1.528808 1.514595 -109.269373 49.744090 56.463507 2.020891 -1.154087 1.115154 0.000002 0.000003 0.000002 9.109294 -0.517848 2.260119 -99.201237 -5.760071 -6.755556 3.699954 0.000296 -0.000109 -133.723329 -5.064425 -11.845639 2.849877 0.000397 0.000380 -189.173960 3.370541 319.714052 2.774888 -0.000030 -0.000012 -0.000001 -0.000001 -0.000000 9.533409 0.000344 0.000236 -134.700879 -0.388256 -0.913450 3.699959 0.000135 -0.000419 69.386191 14.094509 -9.783748 2.950004 0.000085 -0.000232 54.032189 7.579448 -3.867738 2.952866 -0.000000 0.000072 0.000002 -0.000000 0.000000 9.104611 -0.042793 -1.864902 -136.784428 11.850528 29.361255 3.149923 0.000156 -0.000173 60.844978 25.752228 -15.290379 2.949964 0.000103 -0.000154 54.114752 12.287492 -6.293592 2.644323 0.000030 0.000057 -0.000003 0.000001 0.000001 8.077852 -0.486820 -3.806108 -112.022206 34.790504 48.942407 3.599870 0.000134 0.014526 57.455182 29.492876 -16.348488 2.099929 0.000109 0.007531 51.760864 25.483253 -12.448418 2.125502 -0.000003 0.007516 -0.000005 -0.000005 0.000001 -8.207786 -6.751667 -1.599560 -0.077001 -0.000003 0.000080 -0.000002 -44.370110 0.345938 0.153719 -0.000000 -0.000000 0.000000 -44.423679 -3.043532 -0.076700 0.000000 -0.000002 -0.000006 -8.728667 10.710559 -0.000009 -0.000000 -0.000000 -0.000001 -0.000679 9.278123 0.000000 -0.000000 -0.000000 8.207792 -6.751710 -1.599556 -0.074518 -0.000003 0.000081 -0.000002 -44.370014 0.346960 0.148822 0.000002 0.000000 -0.000001 -44.423664 -3.044403 -0.074314 0.000000 -0.000002 -0.000004 -8.728671 10.710558 0.000007 -0.000000 -0.000000 0.000000 -0.000680 9.278137 -0.000000 0.000000 -0.000001 
0.000006 104.270477 1.554256 0.000010 0.000003 -0.000113 -0.000005 10.181587 0.131522 0.000001 -0.000003 0.000084 -0.000000 9.893967 -1.470711 0.000001 0.000000 -0.000000 -0.000000 9.220802 -1.370642 0.000000 -0.000000 -0.000000 0.000001 16.740433 -2.049030 0.000000 -0.000000 -0.000000 0.000000 9.617859 1.685014 0.000000 0.000000 0.000000 0.000002 22.037384 7.501101 0.000000 -0.000000 0.000000 -4.569968 11.014880 -2.160881 0.000008 0.000001 -0.000038 -10.592846 -0.524815 -2.231824 74.375535 45.701475 -35.460361 -27.841526 -0.000003 0.000560 -47.730322 107.753727 62.447047 -28.328838 -0.000007 0.000027 -0.000321 -0.000049 0.000011 -2.464410 -1.573834 2.682347 -43.427917 -160.363949 0.679953 -3.215273 -1.872533 1.924636 152.503890 33.348074 17.349217 -2.654960 -1.527879 1.513074 148.702630 27.026015 -33.068426 -2.018822 -1.151998 1.108047 -0.000003 0.000002 0.000003 -9.108379 -0.517560 2.260156 104.633642 17.393854 -22.463971 -3.700057 0.000301 0.001532 101.447509 15.278404 -18.598699 -2.850082 0.000367 -0.000239 100.126803 12.750047 -15.201312 -2.772155 0.000000 -0.000017 -0.000000 -0.000002 -0.000000 -9.532588 0.000257 0.000243 92.550381 17.688206 -18.630862 -3.700065 0.000310 0.003983 94.826481 11.995229 -12.939312 -2.950061 0.000337 -0.001800 98.108585 11.897201 -13.688076 -2.946620 0.000001 -0.000154 -0.000000 -0.000002 -0.000002 -9.103700 -0.042773 -1.864861 91.243575 19.897301 -20.278227 -3.379322 0.000335 -0.000812 93.438552 7.362543 -7.834715 -2.889737 0.000357 0.000657 100.332583 5.711252 -6.897866 -2.638829 -0.000016 0.000937 -0.000000 -0.000000 0.000002 -8.076763 -0.486406 -3.806017 84.625511 21.982173 -19.909332 -3.600049 0.000272 -0.003544 85.456895 7.770092 -6.853393 -2.100007 0.000313 -0.005497 89.020335 3.808414 -3.533973 -2.115774 -0.000051 -0.003679 -0.000001 -0.000000 -0.000004 4.570446 11.014691 -2.160851 -0.000018 0.000010 -0.000021 10.592520 -0.524584 -2.232357 51.372366 -81.074182 44.717433 27.841728 -0.000079 -0.000088 246.532755 -73.601483 262.496410 28.328835 -0.000012 0.000022 0.000020 -0.000089 -0.000001 2.466141 -1.576156 2.681820 149.780584 169.380318 -173.171100 3.217832 -1.871994 1.916539 297.281689 32.065652 380.882139 2.656017 -1.528802 1.514599 -113.399561 50.581184 60.125759 2.020898 -1.154062 1.115144 0.000001 -0.000004 0.000003 9.109307 -0.517818 2.260116 -100.091477 -5.213933 -6.211206 3.699969 0.000318 -0.000135 -135.663020 -3.106048 -7.645523 2.849889 0.000404 0.000323 -197.618546 6.072693 322.206196 2.774871 -0.000030 -0.000059 0.000000 -0.000001 0.000003 9.533426 0.000389 0.000238 -134.877945 0.866902 2.103998 3.699958 0.000159 -0.000416 68.539603 15.399182 -10.527666 2.949992 0.000091 -0.000219 51.916985 7.828915 -3.814947 2.952867 -0.000015 0.000063 -0.000001 -0.000001 -0.000001 9.104606 -0.042740 -1.864890 -134.013967 11.857558 27.499240 3.149941 0.000154 -0.000151 58.840502 26.915259 -15.370741 2.949940 0.000121 -0.000142 53.263444 12.592611 -6.333196 2.644328 0.000026 0.000053 -0.000001 0.000002 -0.000004 8.077854 -0.486740 -3.806055 -110.220252 27.932542 38.380964 3.599873 0.000132 0.014538 56.246956 31.160679 -16.896602 2.099951 0.000120 0.007506 52.015791 26.327357 -12.950909 2.125517 0.000001 0.007518 -0.000002 -0.000000 0.000001 -8.207786 -6.751667 -1.599560 -0.077001 -0.000003 0.000080 -0.000002 -44.370110 0.345938 0.153719 -0.000000 -0.000000 0.000000 -44.423679 -3.043532 -0.076700 0.000000 -0.000002 -0.000006 -8.728667 10.710559 -0.000009 -0.000000 -0.000000 -0.000001 -0.000679 9.278123 0.000000 -0.000000 -0.000000 8.207792 -6.751710 -1.599556 -0.074518 -0.000003 0.000081 -0.000002 -44.370014 0.346960 0.148822 0.000002 0.000000 -0.000001 -44.423664 -3.044403 -0.074314 0.000000 -0.000002 -0.000004 -8.728671 10.710558 0.000007 -0.000000 -0.000000 0.000000 -0.000680 9.278137 -0.000000 0.000000 -0.000001 
